<svg width="204" height="62" viewBox="0 0 204 62" fill="none" xmlns="http://www.w3.org/2000/svg">
<g clip-path="url(#clip0_1_68)">
<path d="M20.1705 55V28.8182H29.3239C31.1477 28.8182 32.652 29.1335 33.8366 29.7642C35.0213 30.3864 35.9034 31.2259 36.483 32.2827C37.0625 33.331 37.3523 34.4943 37.3523 35.7727C37.3523 36.8977 37.152 37.8267 36.7514 38.5597C36.3594 39.2926 35.8395 39.8722 35.1918 40.2983C34.5526 40.7244 33.858 41.0398 33.108 41.2443V41.5C33.9091 41.5511 34.7145 41.8324 35.5241 42.3438C36.3338 42.8551 37.0114 43.5881 37.5568 44.5426C38.1023 45.4972 38.375 46.6648 38.375 48.0455C38.375 49.358 38.0767 50.5384 37.4801 51.5866C36.8835 52.6349 35.9418 53.4659 34.6548 54.0795C33.3679 54.6932 31.6932 55 29.6307 55H20.1705ZM23.3409 52.1875H29.6307C31.7017 52.1875 33.1719 51.7869 34.0412 50.9858C34.919 50.1761 35.358 49.196 35.358 48.0455C35.358 47.1591 35.1321 46.3409 34.6804 45.5909C34.2287 44.8324 33.5852 44.2273 32.75 43.7756C31.9148 43.3153 30.9261 43.0852 29.7841 43.0852H23.3409V52.1875ZM23.3409 40.3239H29.2216C30.1761 40.3239 31.0369 40.1364 31.804 39.7614C32.5795 39.3864 33.1932 38.858 33.6449 38.1761C34.1051 37.4943 34.3352 36.6932 34.3352 35.7727C34.3352 34.6222 33.9347 33.6463 33.1335 32.8452C32.3324 32.0355 31.0625 31.6307 29.3239 31.6307H23.3409V40.3239ZM43.1754 55V35.3636H46.1925V55H43.1754ZM44.7095 32.0909C44.1214 32.0909 43.6143 31.8906 43.1882 31.4901C42.7706 31.0895 42.5618 30.608 42.5618 30.0455C42.5618 29.483 42.7706 29.0014 43.1882 28.6009C43.6143 28.2003 44.1214 28 44.7095 28C45.2976 28 45.8004 28.2003 46.218 28.6009C46.6442 29.0014 46.8572 29.483 46.8572 30.0455C46.8572 30.608 46.6442 31.0895 46.218 31.4901C45.8004 31.8906 45.2976 32.0909 44.7095 32.0909ZM52.1275 55V28.8182H55.1445V38.483H55.4002C55.6218 38.142 55.9286 37.7074 56.3207 37.179C56.7212 36.642 57.2923 36.1648 58.0337 35.7472C58.7837 35.321 59.7979 35.108 61.0764 35.108C62.7298 35.108 64.1871 35.5213 65.4485 36.348C66.7099 37.1747 67.6942 38.3466 68.4016 39.8636C69.109 41.3807 69.4627 43.1705 69.4627 45.233C69.4627 47.3125 69.109 49.1151 68.4016 50.6406C67.6942 52.1577 66.7141 53.3338 65.4613 54.169C64.2085 54.9957 62.7638 55.4091 61.1275 55.4091C59.8661 55.4091 58.8562 55.2003 58.0977 54.7827C57.3391 54.3565 56.7553 53.875 56.3462 53.3381C55.9371 52.7926 55.6218 52.3409 55.4002 51.983H55.0423V55H52.1275ZM55.0934 45.1818C55.0934 46.6648 55.3107 47.973 55.7454 49.1065C56.18 50.2315 56.815 51.1136 57.6502 51.7528C58.4854 52.3835 59.5082 52.6989 60.7184 52.6989C61.9798 52.6989 63.0323 52.3665 63.8761 51.7017C64.7283 51.0284 65.3675 50.125 65.7937 48.9915C66.2283 47.8494 66.4457 46.5795 66.4457 45.1818C66.4457 43.8011 66.2326 42.5568 65.8065 41.4489C65.3888 40.3324 64.7539 39.4503 63.9016 38.8026C63.0579 38.1463 61.9968 37.8182 60.7184 37.8182C59.4911 37.8182 58.4599 38.1293 57.6246 38.7514C56.7894 39.3651 56.1587 40.2259 55.7326 41.3338C55.3065 42.4332 55.0934 43.7159 55.0934 45.1818ZM77.0948 28.8182V55H74.0778V28.8182H77.0948ZM82.6207 55V35.3636H85.6378V55H82.6207ZM84.1548 32.0909C83.5668 32.0909 83.0597 31.8906 82.6335 31.4901C82.2159 31.0895 82.0071 30.608 82.0071 30.0455C82.0071 29.483 82.2159 29.0014 82.6335 28.6009C83.0597 28.2003 83.5668 28 84.1548 28C84.7429 28 85.2457 28.2003 85.6634 28.6009C86.0895 29.0014 86.3026 29.483 86.3026 30.0455C86.3026 30.608 86.0895 31.0895 85.6634 31.4901C85.2457 31.8906 84.7429 32.0909 84.1548 32.0909ZM99.141 55.4091C97.3683 55.4091 95.8129 54.9872 94.4748 54.1435C93.1452 53.2997 92.1055 52.1193 91.3555 50.6023C90.614 49.0852 90.2433 47.3125 90.2433 45.2841C90.2433 43.2386 90.614 41.4531 91.3555 39.9276C92.1055 38.402 93.1452 37.2173 94.4748 36.3736C95.8129 35.5298 97.3683 35.108 99.141 35.108C100.914 35.108 102.465 35.5298 103.794 36.3736C105.132 37.2173 106.172 38.402 106.914 39.9276C107.664 41.4531 108.039 43.2386 108.039 45.2841C108.039 47.3125 107.664 49.0852 106.914 50.6023C106.172 52.1193 105.132 53.2997 103.794 54.1435C102.465 54.9872 100.914 55.4091 99.141 55.4091ZM99.141 52.6989C100.488 52.6989 101.596 52.3537 102.465 51.6634C103.334 50.973 103.978 50.0653 104.395 48.9403C104.813 47.8153 105.022 46.5966 105.022 45.2841C105.022 43.9716 104.813 42.7486 104.395 41.6151C103.978 40.4815 103.334 39.5653 102.465 38.8665C101.596 38.1676 100.488 37.8182 99.141 37.8182C97.7944 37.8182 96.6864 38.1676 95.8171 38.8665C94.9478 39.5653 94.3043 40.4815 93.8867 41.6151C93.4691 42.7486 93.2603 43.9716 93.2603 45.2841C93.2603 46.5966 93.4691 47.8153 93.8867 48.9403C94.3043 50.0653 94.9478 50.973 95.8171 51.6634C96.6864 52.3537 97.7944 52.6989 99.141 52.6989ZM121.184 35.3636V37.9205H111.008V35.3636H121.184ZM113.974 30.6591H116.991V49.375C116.991 50.2273 117.114 50.8665 117.362 51.2926C117.617 51.7102 117.941 51.9915 118.333 52.1364C118.734 52.2727 119.156 52.3409 119.599 52.3409C119.931 52.3409 120.204 52.3239 120.417 52.2898C120.63 52.2472 120.8 52.2131 120.928 52.1875L121.542 54.8977C121.337 54.9744 121.052 55.0511 120.685 55.1278C120.319 55.2131 119.854 55.2557 119.292 55.2557C118.44 55.2557 117.604 55.0724 116.786 54.706C115.977 54.3395 115.303 53.7812 114.766 53.0312C114.238 52.2812 113.974 51.3352 113.974 50.1932V30.6591ZM129.161 43.1875V55H126.144V28.8182H129.161V38.4318H129.417C129.877 37.4176 130.567 36.6122 131.488 36.0156C132.417 35.4105 133.653 35.108 135.195 35.108C136.533 35.108 137.705 35.3764 138.711 35.9134C139.717 36.4418 140.496 37.2557 141.05 38.3551C141.613 39.446 141.894 40.8352 141.894 42.5227V55H138.877V42.7273C138.877 41.1676 138.472 39.9616 137.663 39.1094C136.862 38.2486 135.749 37.8182 134.326 37.8182C133.337 37.8182 132.451 38.027 131.667 38.4446C130.891 38.8622 130.278 39.4716 129.826 40.2727C129.383 41.0739 129.161 42.0455 129.161 43.1875ZM155.647 55.4091C153.755 55.4091 152.123 54.9915 150.75 54.1562C149.387 53.3125 148.334 52.1364 147.593 50.6278C146.86 49.1108 146.493 47.3466 146.493 45.3352C146.493 43.3239 146.86 41.5511 147.593 40.017C148.334 38.4744 149.365 37.2727 150.686 36.4119C152.016 35.5426 153.567 35.108 155.34 35.108C156.363 35.108 157.373 35.2784 158.37 35.6193C159.367 35.9602 160.275 36.5142 161.093 37.2812C161.911 38.0398 162.563 39.0455 163.049 40.2983C163.534 41.5511 163.777 43.0937 163.777 44.9261V46.2045H148.641V43.5966H160.709C160.709 42.4886 160.488 41.5 160.044 40.6307C159.61 39.7614 158.988 39.0753 158.178 38.5724C157.377 38.0696 156.431 37.8182 155.34 37.8182C154.138 37.8182 153.098 38.1165 152.221 38.7131C151.351 39.3011 150.682 40.0682 150.213 41.0142C149.745 41.9602 149.51 42.9744 149.51 44.0568V45.7955C149.51 47.2784 149.766 48.5355 150.277 49.5668C150.797 50.5895 151.517 51.3693 152.438 51.9062C153.358 52.4347 154.428 52.6989 155.647 52.6989C156.439 52.6989 157.155 52.5881 157.794 52.3665C158.442 52.1364 159 51.7955 159.469 51.3438C159.938 50.8835 160.3 50.3125 160.556 49.6307L163.471 50.4489C163.164 51.4375 162.648 52.3068 161.924 53.0568C161.199 53.7983 160.304 54.3778 159.239 54.7955C158.174 55.2045 156.976 55.4091 155.647 55.4091ZM171.179 47.8409L171.128 44.108H171.742L180.333 35.3636H184.066L174.912 44.6193H174.657L171.179 47.8409ZM168.367 55V28.8182H171.384V55H168.367ZM180.844 55L173.174 45.2841L175.321 43.1875L184.679 55H180.844Z" fill="#F4ACB7"/>
<path d="M17.1705 55V28.8182H26.3239C28.1477 28.8182 29.652 29.1335 30.8366 29.7642C32.0213 30.3864 32.9034 31.2259 33.483 32.2827C34.0625 33.331 34.3523 34.4943 34.3523 35.7727C34.3523 36.8977 34.152 37.8267 33.7514 38.5597C33.3594 39.2926 32.8395 39.8722 32.1918 40.2983C31.5526 40.7244 30.858 41.0398 30.108 41.2443V41.5C30.9091 41.5511 31.7145 41.8324 32.5241 42.3438C33.3338 42.8551 34.0114 43.5881 34.5568 44.5426C35.1023 45.4972 35.375 46.6648 35.375 48.0455C35.375 49.358 35.0767 50.5384 34.4801 51.5866C33.8835 52.6349 32.9418 53.4659 31.6548 54.0795C30.3679 54.6932 28.6932 55 26.6307 55H17.1705ZM20.3409 52.1875H26.6307C28.7017 52.1875 30.1719 51.7869 31.0412 50.9858C31.919 50.1761 32.358 49.196 32.358 48.0455C32.358 47.1591 32.1321 46.3409 31.6804 45.5909C31.2287 44.8324 30.5852 44.2273 29.75 43.7756C28.9148 43.3153 27.9261 43.0852 26.7841 43.0852H20.3409V52.1875ZM20.3409 40.3239H26.2216C27.1761 40.3239 28.0369 40.1364 28.804 39.7614C29.5795 39.3864 30.1932 38.858 30.6449 38.1761C31.1051 37.4943 31.3352 36.6932 31.3352 35.7727C31.3352 34.6222 30.9347 33.6463 30.1335 32.8452C29.3324 32.0355 28.0625 31.6307 26.3239 31.6307H20.3409V40.3239ZM40.1754 55V35.3636H43.1925V55H40.1754ZM41.7095 32.0909C41.1214 32.0909 40.6143 31.8906 40.1882 31.4901C39.7706 31.0895 39.5618 30.608 39.5618 30.0455C39.5618 29.483 39.7706 29.0014 40.1882 28.6009C40.6143 28.2003 41.1214 28 41.7095 28C42.2976 28 42.8004 28.2003 43.218 28.6009C43.6442 29.0014 43.8572 29.483 43.8572 30.0455C43.8572 30.608 43.6442 31.0895 43.218 31.4901C42.8004 31.8906 42.2976 32.0909 41.7095 32.0909ZM49.1275 55V28.8182H52.1445V38.483H52.4002C52.6218 38.142 52.9286 37.7074 53.3207 37.179C53.7212 36.642 54.2923 36.1648 55.0337 35.7472C55.7837 35.321 56.7979 35.108 58.0764 35.108C59.7298 35.108 61.1871 35.5213 62.4485 36.348C63.7099 37.1747 64.6942 38.3466 65.4016 39.8636C66.109 41.3807 66.4627 43.1705 66.4627 45.233C66.4627 47.3125 66.109 49.1151 65.4016 50.6406C64.6942 52.1577 63.7141 53.3338 62.4613 54.169C61.2085 54.9957 59.7638 55.4091 58.1275 55.4091C56.8661 55.4091 55.8562 55.2003 55.0977 54.7827C54.3391 54.3565 53.7553 53.875 53.3462 53.3381C52.9371 52.7926 52.6218 52.3409 52.4002 51.983H52.0423V55H49.1275ZM52.0934 45.1818C52.0934 46.6648 52.3107 47.973 52.7454 49.1065C53.18 50.2315 53.815 51.1136 54.6502 51.7528C55.4854 52.3835 56.5082 52.6989 57.7184 52.6989C58.9798 52.6989 60.0323 52.3665 60.8761 51.7017C61.7283 51.0284 62.3675 50.125 62.7937 48.9915C63.2283 47.8494 63.4457 46.5795 63.4457 45.1818C63.4457 43.8011 63.2326 42.5568 62.8065 41.4489C62.3888 40.3324 61.7539 39.4503 60.9016 38.8026C60.0579 38.1463 58.9968 37.8182 57.7184 37.8182C56.4911 37.8182 55.4599 38.1293 54.6246 38.7514C53.7894 39.3651 53.1587 40.2259 52.7326 41.3338C52.3065 42.4332 52.0934 43.7159 52.0934 45.1818ZM74.0948 28.8182V55H71.0778V28.8182H74.0948ZM79.6207 55V35.3636H82.6378V55H79.6207ZM81.1548 32.0909C80.5668 32.0909 80.0597 31.8906 79.6335 31.4901C79.2159 31.0895 79.0071 30.608 79.0071 30.0455C79.0071 29.483 79.2159 29.0014 79.6335 28.6009C80.0597 28.2003 80.5668 28 81.1548 28C81.7429 28 82.2457 28.2003 82.6634 28.6009C83.0895 29.0014 83.3026 29.483 83.3026 30.0455C83.3026 30.608 83.0895 31.0895 82.6634 31.4901C82.2457 31.8906 81.7429 32.0909 81.1548 32.0909ZM96.141 55.4091C94.3683 55.4091 92.8129 54.9872 91.4748 54.1435C90.1452 53.2997 89.1055 52.1193 88.3555 50.6023C87.614 49.0852 87.2433 47.3125 87.2433 45.2841C87.2433 43.2386 87.614 41.4531 88.3555 39.9276C89.1055 38.402 90.1452 37.2173 91.4748 36.3736C92.8129 35.5298 94.3683 35.108 96.141 35.108C97.9137 35.108 99.4648 35.5298 100.794 36.3736C102.132 37.2173 103.172 38.402 103.914 39.9276C104.664 41.4531 105.039 43.2386 105.039 45.2841C105.039 47.3125 104.664 49.0852 103.914 50.6023C103.172 52.1193 102.132 53.2997 100.794 54.1435C99.4648 54.9872 97.9137 55.4091 96.141 55.4091ZM96.141 52.6989C97.4876 52.6989 98.5955 52.3537 99.4648 51.6634C100.334 50.973 100.978 50.0653 101.395 48.9403C101.813 47.8153 102.022 46.5966 102.022 45.2841C102.022 43.9716 101.813 42.7486 101.395 41.6151C100.978 40.4815 100.334 39.5653 99.4648 38.8665C98.5955 38.1676 97.4876 37.8182 96.141 37.8182C94.7944 37.8182 93.6864 38.1676 92.8171 38.8665C91.9478 39.5653 91.3043 40.4815 90.8867 41.6151C90.4691 42.7486 90.2603 43.9716 90.2603 45.2841C90.2603 46.5966 90.4691 47.8153 90.8867 48.9403C91.3043 50.0653 91.9478 50.973 92.8171 51.6634C93.6864 52.3537 94.7944 52.6989 96.141 52.6989ZM118.184 35.3636V37.9205H108.008V35.3636H118.184ZM110.974 30.6591H113.991V49.375C113.991 50.2273 114.114 50.8665 114.362 51.2926C114.617 51.7102 114.941 51.9915 115.333 52.1364C115.734 52.2727 116.156 52.3409 116.599 52.3409C116.931 52.3409 117.204 52.3239 117.417 52.2898C117.63 52.2472 117.8 52.2131 117.928 52.1875L118.542 54.8977C118.337 54.9744 118.052 55.0511 117.685 55.1278C117.319 55.2131 116.854 55.2557 116.292 55.2557C115.44 55.2557 114.604 55.0724 113.786 54.706C112.977 54.3395 112.303 53.7812 111.766 53.0312C111.238 52.2812 110.974 51.3352 110.974 50.1932V30.6591ZM126.161 43.1875V55H123.144V28.8182H126.161V38.4318H126.417C126.877 37.4176 127.567 36.6122 128.488 36.0156C129.417 35.4105 130.653 35.108 132.195 35.108C133.533 35.108 134.705 35.3764 135.711 35.9134C136.717 36.4418 137.496 37.2557 138.05 38.3551C138.613 39.446 138.894 40.8352 138.894 42.5227V55H135.877V42.7273C135.877 41.1676 135.472 39.9616 134.663 39.1094C133.862 38.2486 132.749 37.8182 131.326 37.8182C130.337 37.8182 129.451 38.027 128.667 38.4446C127.891 38.8622 127.278 39.4716 126.826 40.2727C126.383 41.0739 126.161 42.0455 126.161 43.1875ZM152.647 55.4091C150.755 55.4091 149.123 54.9915 147.75 54.1562C146.387 53.3125 145.334 52.1364 144.593 50.6278C143.86 49.1108 143.493 47.3466 143.493 45.3352C143.493 43.3239 143.86 41.5511 144.593 40.017C145.334 38.4744 146.365 37.2727 147.686 36.4119C149.016 35.5426 150.567 35.108 152.34 35.108C153.363 35.108 154.373 35.2784 155.37 35.6193C156.367 35.9602 157.275 36.5142 158.093 37.2812C158.911 38.0398 159.563 39.0455 160.049 40.2983C160.534 41.5511 160.777 43.0937 160.777 44.9261V46.2045H145.641V43.5966H157.709C157.709 42.4886 157.488 41.5 157.044 40.6307C156.61 39.7614 155.988 39.0753 155.178 38.5724C154.377 38.0696 153.431 37.8182 152.34 37.8182C151.138 37.8182 150.098 38.1165 149.221 38.7131C148.351 39.3011 147.682 40.0682 147.213 41.0142C146.745 41.9602 146.51 42.9744 146.51 44.0568V45.7955C146.51 47.2784 146.766 48.5355 147.277 49.5668C147.797 50.5895 148.517 51.3693 149.438 51.9062C150.358 52.4347 151.428 52.6989 152.647 52.6989C153.439 52.6989 154.155 52.5881 154.794 52.3665C155.442 52.1364 156 51.7955 156.469 51.3438C156.938 50.8835 157.3 50.3125 157.556 49.6307L160.471 50.4489C160.164 51.4375 159.648 52.3068 158.924 53.0568C158.199 53.7983 157.304 54.3778 156.239 54.7955C155.174 55.2045 153.976 55.4091 152.647 55.4091ZM168.179 47.8409L168.128 44.108H168.742L177.333 35.3636H181.066L171.912 44.6193H171.657L168.179 47.8409ZM165.367 55V28.8182H168.384V55H165.367ZM177.844 55L170.174 45.2841L172.321 43.1875L181.679 55H177.844Z" fill="#9D8189"/>
</g>
<defs>
<clipPath id="clip0_1_68">
<rect width="204" height="62" fill="white"/>
</clipPath>
</defs>
</svg>
