<svg width="478" height="424" viewBox="0 0 478 424" fill="none" xmlns="http://www.w3.org/2000/svg">
<path fill-rule="evenodd" clip-rule="evenodd" d="M102.022 136.002C110.223 135.996 115.158 144.708 115.158 144.708C118.524 163.719 128.754 172.411 145.8 170.769C149.081 183.86 175.438 195.789 185.191 188.15C190.164 184.265 188.986 162.341 189.572 162.088C191.775 161.066 201.328 201.775 202.448 165.043C202.48 164.191 202.998 163.913 203.151 164.745C207.992 188.375 226.548 162.477 224.594 183.797C246.292 166.037 260.461 167.474 272.741 140.361C279.942 160.643 242.942 174.41 233.349 192.49C235.233 202.198 254.913 194.25 263.981 196.83C227.32 184.604 260.499 195.962 272.741 179.45C269.708 168.616 261.069 187.514 250.851 183.796C259.331 174.74 300.076 160.294 307.769 136C315.899 151.484 282.254 162.719 277.117 179.449C287.019 183.056 306.565 174.394 316.515 157.735C323.914 183.99 283.273 199.983 255.236 205.515C272.584 218.197 299.394 190.143 320.889 201.178C292.789 219.038 316.992 241.722 267.273 226.091C279.405 220.981 284.452 218.222 297.872 217.973C273.061 211.849 236.251 219.586 224.594 209.862C225.543 229.192 246.729 227.016 256.057 238.03C308.466 225.889 233.579 260.882 220.219 231.586C210.967 220.949 224.821 238.067 233.349 235.922C232.461 219.416 214.935 219.444 215.828 201.178C203.004 204.864 219.617 215.656 215.828 222.894C194.381 263.999 196.399 337.586 155.544 357.161C155.056 357.394 153.742 358.272 153.115 357.798C152.603 357.394 152.732 355.75 152.748 354.984C152.987 342.696 159.356 321.882 174.238 318.083C175.818 317.686 178.09 317.655 179.126 317.674C197.191 282.024 201.599 262.03 207.083 214.208C203.714 243.552 113.43 235.886 88.8973 183.795C82.617 170.484 88.1972 175.254 90.2549 169.246C103.433 186.018 149.303 198.275 158.926 196.828C146.037 189.539 77.8528 174.235 102.022 136.002Z" fill="url(#paint0_linear_1_9)"/>
<defs>
<linearGradient id="paint0_linear_1_9" x1="236.5" y1="320.5" x2="119" y2="253" gradientUnits="userSpaceOnUse">
<stop stop-color="#F4ACB7"/>
<stop offset="1" stop-color="#A51848"/>
</linearGradient>
</defs>
</svg>
